<svg enable-background="new 0 0 1584 720" viewBox="0 0 1584 720" xml:space="preserve" xmlns="http://www.w3.org/2000/svg"><path d="m711.9 598.06h26.16v-11.15h-38.98v51.56h38.98v-11.14h-26.16v-8.95h22.82v-10.92h-22.82zm-44.2.15h25.63v-11.3h-38.44v51.56h12.82v-18.2h22.14v-11.15h-22.15zm-21.91-11.3h-12.81v51.56h12.81zm-18.88 40.27h-25.48v-40.26h-12.81v51.56h38.29zm-96.6 2.12c-4.63 0-8.19-2.88-8.19-6.37 0-2.35 1.44-4.32 3.64-5.61l2.88 2.73 8.11 7.66c-2.12 1.06-4.4 1.59-6.44 1.59m17.97 9.17h15.85l-11.52-11.22.3-.45 9.78-16.15h-12.59l-5.46 8.87-8.49-8.26c-4.93-4.7-7.43-7.05-7.43-10.16 0-2.96 2.12-4.85 4.93-4.85 2.96 0 5 2.12 5.31 5.76h11.6c-.84-9.86-7.05-16.23-17.29-16.23-10.54 0-17.29 6.75-17.29 15.01 0 3.18.99 5.99 3.11 9.02-5.08 2.73-8.72 7.28-8.72 13.57 0 9.71 7.81 16.23 19.64 16.23 5.84 0 10.84-1.44 14.94-4.25zm-84.84-52.69c-12.13 0-20.47 6.52-20.47 16.83 0 8.19 4.77 12.96 14.94 15.16l8.49 1.89c4.4.83 5.46 2.65 5.46 4.4 0 2.81-2.5 4.55-7.28 4.55-6.07 0-10.01-2.73-10.84-7.28h-12.81c1.21 12.74 11.68 18.2 23.28 18.2 12.89 0 21.38-6.44 21.38-16.76 0-8.87-6.14-12.66-15.54-14.71l-7.2-1.67c-3.87-.83-5.92-2.04-5.92-4.85 0-3.34 2.96-5.16 7.36-5.16 5.23 0 7.66 2.66 8.34 6.52h12.89c-1.31-13.86-13.75-17.12-22.08-17.12m-53.38 12.28h26.16v-11.15h-38.98v51.56h38.98v-11.14h-26.16v-8.95h22.82v-10.92h-22.82zm-21.92-11.15h-12.81v51.56h12.81zm-18.58 11.46v-11.45h-45.64v11.45h16.45v40.11h12.82v-40.11zm-51.4-11.46h-12.81v51.56h12.81zm-21.16 0h-12.89v27.75c0 7.88-4.4 12.96-11.15 12.96s-11.07-5.08-11.07-12.96v-27.75h-12.89v27.52c0 16 9.25 25.17 23.96 25.17 14.79 0 24.04-9.17 24.04-25.17zm-56.26 0h-12.81v29.04l-24.87-29.04h-9.78v51.56h12.82v-28.28l24.72 28.28h9.93v-51.56zm-56.49 0h-12.81v29.04l-24.87-29.04h-9.78v51.56h12.81v-28.28l24.72 28.28h9.93zm-74.3 31.77h-13.35l6.67-17.13zm4.24 10.92 3.49 8.87h13.57l-21.84-51.86h-12.2l-21.91 51.86h13.65l3.41-8.87z" fill="#646464"/><path d="m522.43 385.94h85.76c-3.67 11.16-9.26 20.28-16.74 27.22-11.84 11.03-29.95 16.61-53.77 16.61-16.34 0-30.09-3-40.84-8.99-11.16-6.12-19.88-14.02-26.68-24.23-7.35-10.62-12.66-23.01-16.06-36.62-3.54-14.43-5.31-29.4-5.31-44.78 0-16.06 1.77-31.86 5.31-46.83 3.4-14.16 8.85-26.82 16.06-37.84 6.95-10.21 15.65-18.24 26.68-24.37 10.75-5.86 24.5-8.99 40.84-8.99 16.88 0 30.76 4.22 42.2 12.8 11.03 8.3 18.38 20.96 22.6 38.79l3.95 17.02h127.55l-2.31-24.1c-2.59-26.27-9.94-50.1-21.64-70.65-11.71-20.28-26.82-37.71-44.92-51.59-17.7-13.75-37.84-24.23-59.9-31.31-21.64-6.94-44.38-10.48-67.52-10.48-34.31 0-65.62 6.26-93.39 18.51s-51.6 29.54-70.79 51.32c-18.92 21.51-33.62 46.96-43.7 75.55-4.12 11.76-7.37 24-9.78 36.63 1.34-.09 2.69-.17 4.08-.17 26.11 0 41.97 16.25 44.1 41.39h-29.59c-.77-9.28-6-14.7-13.54-14.7-7.16 0-12.57 4.83-12.57 12.38 0 7.93 6.38 13.93 18.95 25.92l21.66 21.08 13.93-22.63h32.11l-24.95 41.2-.77 1.16 29.4 28.63h-40.42l-8.51-7.93c-7.8 5.34-16.89 8.74-27.2 10.12 1.02 3.28 2.09 6.53 3.25 9.74 10.07 28.32 24.77 53.36 43.83 74.46 19.19 21.37 42.88 38.39 70.65 50.37 27.63 12.11 59.08 18.1 93.25 18.1 22.6 0 45.33-4.63 67.38-14.02 10.89-4.49 21.23-10.62 31.04-18.38l4.63 23.28h97.33v-251.13h-215.64z" fill="#ffc20e"/><path d="m295.68 354.23c0 8.89 9.09 16.25 20.89 16.25 5.22 0 11.03-1.35 16.44-4.06l-20.69-19.54-7.35-6.96c-5.61 3.29-9.29 8.32-9.29 14.31m155.2-276.21h-376.3v461.61h131.5v-145.39h72.38 14.06 4.35c-19.28-5.52-31.17-19.75-31.17-38.85 0-16.06 9.29-27.66 22.24-34.62-5.42-7.74-7.93-14.89-7.93-23.02 0-15.6 9.44-29.05 25.22-35.01h-19.25-14.06-65.85v-53.36h113.84c10.07-26.14 23.55-49.82 40.7-69.97 19.74-23.28 44.11-41.52 72.42-54.45 5.73-2.72 11.72-4.9 17.85-6.94" fill="#582c83"/><path d="m835.17 78.02v560.45" fill="none" stroke="#646464" stroke-width="3.9461"/><g fill="#646464"><path d="m960.58 172.8v12.69h-36.25v14.71h33.27v11.73h-33.27v16.83h37.02v12.69h-52.11v-68.65z"/><path d="m966.45 191.74h15.58l8.75 12.98 8.65-12.98h15.1l-16.35 23.27 18.36 26.44h-15.58l-10.39-15.67-10.38 15.67h-15.29l17.88-26.15z"/><path d="m1034.72 191.74v6.35h.19c1.67-2.69 3.78-4.65 6.35-5.87 2.56-1.22 5.38-1.83 8.46-1.83 3.91 0 7.27.74 10.1 2.21 2.82 1.47 5.16 3.43 7.02 5.86 1.86 2.44 3.23 5.27 4.13 8.51s1.35 6.62 1.35 10.14c0 3.33-.45 6.54-1.35 9.62s-2.26 5.8-4.09 8.17-4.1 4.26-6.83 5.67c-2.72 1.41-5.91 2.12-9.57 2.12-3.08 0-5.91-.62-8.51-1.88-2.6-1.25-4.73-3.09-6.39-5.53h-.19v23.56h-13.65v-67.11h12.98zm17.74 39.43c1.51-.9 2.72-2.07 3.65-3.51s1.59-3.12 1.97-5.05c.39-1.92.58-3.88.58-5.87s-.21-3.94-.62-5.86c-.42-1.92-1.1-3.64-2.07-5.14-.96-1.51-2.2-2.72-3.7-3.65-1.51-.93-3.35-1.39-5.53-1.39-2.24 0-4.12.47-5.63 1.39-1.51.93-2.72 2.13-3.65 3.61s-1.59 3.17-1.97 5.1c-.38 1.92-.58 3.91-.58 5.96 0 1.99.21 3.94.63 5.87.42 1.92 1.09 3.61 2.02 5.05s2.16 2.61 3.7 3.51 3.4 1.35 5.58 1.35c2.23-.03 4.11-.48 5.62-1.37z"/><path d="m1095.1 229.53c2.05 1.99 5 2.98 8.85 2.98 2.75 0 5.13-.69 7.12-2.07s3.2-2.84 3.65-4.37h12.02c-1.92 5.96-4.87 10.22-8.85 12.79-3.98 2.56-8.78 3.85-14.42 3.85-3.91 0-7.44-.62-10.58-1.88-3.14-1.25-5.8-3.03-7.98-5.34s-3.86-5.06-5.05-8.27c-1.19-3.2-1.78-6.73-1.78-10.58 0-3.72.61-7.18 1.83-10.38s2.95-5.98 5.19-8.32 4.92-4.18 8.03-5.53 6.55-2.02 10.34-2.02c4.23 0 7.92.82 11.06 2.45s5.72 3.83 7.74 6.59 3.48 5.9 4.37 9.42c.9 3.53 1.22 7.21.96 11.06h-35.87c.2 4.43 1.32 7.64 3.37 9.62zm15.43-26.15c-1.63-1.79-4.12-2.69-7.45-2.69-2.18 0-3.99.37-5.43 1.11s-2.6 1.65-3.46 2.74c-.87 1.09-1.48 2.24-1.83 3.46s-.56 2.31-.62 3.27h22.21c-.65-3.47-1.78-6.1-3.42-7.89z"/><path d="m1148.65 191.74v9.23h.19c.64-1.54 1.51-2.96 2.6-4.28 1.09-1.31 2.34-2.44 3.75-3.37s2.92-1.65 4.52-2.16 3.27-.77 5-.77c.9 0 1.89.16 2.98.48v12.69c-.64-.13-1.41-.24-2.31-.34s-1.76-.14-2.6-.14c-2.5 0-4.62.42-6.35 1.25s-3.12 1.97-4.18 3.41-1.81 3.12-2.26 5.05c-.45 1.92-.67 4.01-.67 6.25v22.4h-13.65v-49.71h12.98z"/><path d="m1173.46 184.05v-11.25h13.65v11.25zm13.66 7.69v49.71h-13.65v-49.71z"/><path d="m1212.5 229.53c2.05 1.99 5 2.98 8.85 2.98 2.75 0 5.13-.69 7.12-2.07s3.2-2.84 3.65-4.37h12.02c-1.92 5.96-4.87 10.22-8.85 12.79-3.98 2.56-8.78 3.85-14.42 3.85-3.91 0-7.44-.62-10.58-1.88-3.14-1.25-5.8-3.03-7.98-5.34s-3.86-5.06-5.05-8.27c-1.19-3.2-1.78-6.73-1.78-10.58 0-3.72.61-7.18 1.83-10.38s2.95-5.98 5.19-8.32 4.92-4.18 8.03-5.53 6.55-2.02 10.34-2.02c4.23 0 7.92.82 11.06 2.45s5.72 3.83 7.74 6.59 3.48 5.9 4.37 9.42c.9 3.53 1.22 7.21.96 11.06h-35.87c.2 4.43 1.32 7.64 3.37 9.62zm15.43-26.15c-1.63-1.79-4.12-2.69-7.45-2.69-2.18 0-3.99.37-5.43 1.11s-2.6 1.65-3.46 2.74c-.87 1.09-1.48 2.24-1.83 3.46s-.56 2.31-.62 3.27h22.21c-.65-3.47-1.79-6.1-3.42-7.89z"/><path d="m1266.06 191.74v6.92h.29c1.73-2.88 3.97-4.98 6.73-6.3 2.76-1.31 5.58-1.97 8.46-1.97 3.65 0 6.65.5 8.99 1.49s4.18 2.37 5.53 4.13 2.29 3.91 2.84 6.44c.54 2.53.82 5.34.82 8.41v30.58h-13.65v-28.08c0-4.1-.64-7.16-1.92-9.18s-3.56-3.03-6.83-3.03c-3.72 0-6.41 1.11-8.08 3.32s-2.5 5.85-2.5 10.91v26.06h-13.65v-49.71h12.97z"/><path d="m1333.84 200.69c-2.18 0-4.01.5-5.48 1.49s-2.68 2.28-3.61 3.85-1.58 3.3-1.97 5.19-.58 3.77-.58 5.63c0 1.8.19 3.62.58 5.48s1.01 3.54 1.88 5.05 2.03 2.74 3.51 3.7c1.47.96 3.27 1.44 5.38 1.44 3.27 0 5.78-.91 7.55-2.74 1.76-1.83 2.87-4.28 3.32-7.36h13.17c-.9 6.6-3.46 11.63-7.69 15.1-4.23 3.46-9.65 5.19-16.25 5.19-3.72 0-7.13-.62-10.24-1.88-3.11-1.25-5.75-3-7.93-5.24s-3.88-4.92-5.1-8.03-1.83-6.52-1.83-10.24c0-3.85.56-7.42 1.68-10.72s2.77-6.15 4.95-8.56c2.18-2.4 4.84-4.28 7.98-5.62 3.14-1.35 6.73-2.02 10.77-2.02 2.95 0 5.78.38 8.51 1.15 2.72.77 5.16 1.94 7.31 3.51s3.89 3.53 5.24 5.87 2.12 5.11 2.31 8.32h-13.37c-.89-5.71-4.26-8.56-10.09-8.56z"/><path d="m1379.9 229.53c2.05 1.99 5 2.98 8.85 2.98 2.75 0 5.13-.69 7.12-2.07s3.21-2.84 3.65-4.37h12.02c-1.92 5.96-4.87 10.22-8.85 12.79-3.98 2.56-8.78 3.85-14.42 3.85-3.91 0-7.44-.62-10.58-1.88-3.14-1.25-5.8-3.03-7.98-5.34s-3.86-5.06-5.05-8.27c-1.19-3.2-1.78-6.73-1.78-10.58 0-3.72.61-7.18 1.83-10.38s2.95-5.98 5.19-8.32 4.92-4.18 8.03-5.53 6.55-2.02 10.34-2.02c4.23 0 7.92.82 11.06 2.45s5.72 3.83 7.74 6.59 3.48 5.9 4.37 9.42c.9 3.53 1.22 7.21.96 11.06h-35.87c.19 4.43 1.31 7.64 3.37 9.62zm15.43-26.15c-1.63-1.79-4.12-2.69-7.45-2.69-2.18 0-3.99.37-5.43 1.11s-2.6 1.65-3.46 2.74c-.87 1.09-1.48 2.24-1.83 3.46s-.56 2.31-.62 3.27h22.21c-.65-3.47-1.79-6.1-3.42-7.89z"/><text font-family="'HelveticaNeue-Bold'" font-size="96.1484" transform="translate(1442.0089 241.4555)"/><path d="m935.1 291.4v9.13h-10v24.61c0 2.31.38 3.85 1.15 4.62s2.31 1.15 4.61 1.15c.77 0 1.51-.03 2.21-.1.71-.06 1.38-.16 2.02-.29v10.58c-1.15.19-2.44.32-3.85.39-1.41.06-2.79.1-4.13.1-2.12 0-4.12-.14-6.01-.43s-3.56-.85-5-1.68-2.58-2.02-3.41-3.56-1.25-3.56-1.25-6.06v-29.33h-8.27v-9.13h8.27v-14.9h13.65v14.9z"/><path d="m955.3 272.46v25.87h.29c1.73-2.88 3.94-4.98 6.63-6.3 2.69-1.31 5.32-1.97 7.88-1.97 3.65 0 6.65.5 8.99 1.49 2.34 1 4.18 2.37 5.53 4.14 1.35 1.76 2.29 3.91 2.84 6.44.54 2.53.82 5.34.82 8.41v30.58h-13.65v-28.08c0-4.1-.64-7.16-1.92-9.18s-3.56-3.03-6.83-3.03c-3.72 0-6.41 1.11-8.08 3.32s-2.5 5.85-2.5 10.91v26.06h-13.65v-68.65h13.65z"/><path d="m1013.27 329.19c2.05 1.99 5 2.98 8.85 2.98 2.75 0 5.13-.69 7.12-2.07s3.21-2.84 3.65-4.37h12.02c-1.92 5.96-4.87 10.23-8.85 12.79s-8.78 3.85-14.42 3.85c-3.91 0-7.44-.63-10.58-1.88s-5.8-3.03-7.98-5.34-3.86-5.06-5.05-8.27-1.78-6.73-1.78-10.58c0-3.72.61-7.18 1.83-10.38 1.22-3.21 2.95-5.98 5.19-8.32s4.92-4.18 8.03-5.53 6.55-2.02 10.34-2.02c4.23 0 7.92.82 11.06 2.45s5.72 3.83 7.74 6.59 3.48 5.9 4.37 9.42c.9 3.53 1.22 7.21.96 11.06h-35.87c.2 4.43 1.32 7.63 3.37 9.62zm15.44-26.16c-1.63-1.79-4.12-2.69-7.45-2.69-2.18 0-3.99.37-5.43 1.1-1.44.74-2.6 1.65-3.46 2.74-.87 1.09-1.48 2.24-1.83 3.46s-.56 2.31-.62 3.27h22.21c-.65-3.45-1.79-6.08-3.42-7.88z"/><path d="m1112.98 272.46c4.29 0 7.95.63 10.96 1.88s5.46 2.9 7.35 4.95 3.27 4.39 4.14 7.02 1.3 5.35 1.3 8.17c0 2.76-.43 5.47-1.3 8.13s-2.24 5.02-4.14 7.07c-1.89 2.05-4.34 3.7-7.35 4.95-3.02 1.25-6.67 1.88-10.96 1.88h-15.87v24.61h-15.09v-68.65h30.96zm-4.13 32.31c1.73 0 3.4-.13 5-.38 1.6-.26 3.01-.75 4.23-1.49s2.2-1.78 2.93-3.12c.74-1.35 1.1-3.11 1.1-5.29s-.37-3.94-1.1-5.29c-.74-1.35-1.72-2.39-2.93-3.12-1.22-.74-2.63-1.23-4.23-1.49s-3.27-.38-5-.38h-11.73v20.58h11.73z"/><path d="m1145 305.49c1.22-3.24 2.95-5.99 5.19-8.27 2.24-2.27 4.94-4.04 8.08-5.29s6.67-1.88 10.58-1.88 7.45.62 10.62 1.88c3.17 1.25 5.88 3.01 8.12 5.29s3.97 5.03 5.19 8.27 1.83 6.84 1.83 10.82-.61 7.57-1.83 10.77c-1.22 3.21-2.95 5.95-5.19 8.22-2.24 2.28-4.95 4.02-8.12 5.24s-6.72 1.83-10.62 1.83c-3.91 0-7.44-.61-10.58-1.83s-5.83-2.96-8.08-5.24c-2.24-2.27-3.98-5.02-5.19-8.22-1.22-3.21-1.83-6.8-1.83-10.77 0-3.98.61-7.58 1.83-10.82zm12.4 16.63c.39 1.89 1.04 3.59 1.97 5.1s2.16 2.71 3.7 3.6c1.54.9 3.46 1.35 5.77 1.35s4.24-.45 5.82-1.35c1.57-.9 2.82-2.1 3.75-3.6.93-1.51 1.59-3.21 1.97-5.1.39-1.89.58-3.83.58-5.82s-.19-3.94-.58-5.86-1.04-3.62-1.97-5.1c-.93-1.47-2.18-2.68-3.75-3.61s-3.51-1.39-5.82-1.39-4.23.47-5.77 1.39c-1.54.93-2.77 2.13-3.7 3.61s-1.58 3.17-1.97 5.1-.58 3.88-.58 5.86c.01 1.99.2 3.93.58 5.82z"/><path d="m1246.25 341.11-8.85-33.36h-.19l-8.46 33.36h-14.13l-15.77-49.71h14.42l9.13 33.75h.19l8.27-33.75h13.27l8.46 33.65h.19l9.13-33.65h14.04l-15.67 49.71z"/><path d="m1296.34 329.19c2.05 1.99 5 2.98 8.85 2.98 2.75 0 5.13-.69 7.12-2.07s3.2-2.84 3.65-4.37h12.02c-1.92 5.96-4.87 10.23-8.85 12.79s-8.78 3.85-14.42 3.85c-3.91 0-7.44-.63-10.58-1.88s-5.8-3.03-7.98-5.34-3.86-5.06-5.05-8.27-1.78-6.73-1.78-10.58c0-3.72.61-7.18 1.83-10.38 1.22-3.21 2.95-5.98 5.19-8.32s4.92-4.18 8.03-5.53 6.55-2.02 10.34-2.02c4.23 0 7.92.82 11.06 2.45s5.72 3.83 7.74 6.59 3.48 5.9 4.37 9.42c.9 3.53 1.22 7.21.96 11.06h-35.87c.2 4.43 1.32 7.63 3.37 9.62zm15.44-26.16c-1.63-1.79-4.12-2.69-7.45-2.69-2.18 0-3.99.37-5.43 1.1-1.44.74-2.6 1.65-3.46 2.74-.87 1.09-1.48 2.24-1.83 3.46s-.56 2.31-.62 3.27h22.21c-.65-3.45-1.79-6.08-3.42-7.88z"/><path d="m1349.9 291.4v9.23h.19c.64-1.54 1.51-2.96 2.6-4.28 1.09-1.31 2.34-2.43 3.75-3.37 1.41-.93 2.92-1.65 4.52-2.16s3.27-.77 5-.77c.9 0 1.89.16 2.98.48v12.69c-.64-.13-1.41-.24-2.31-.34-.9-.09-1.76-.14-2.6-.14-2.5 0-4.62.42-6.35 1.25s-3.12 1.97-4.18 3.41-1.81 3.13-2.26 5.05-.67 4.01-.67 6.25v22.4h-13.65v-49.7z"/><path d="m1401.34 305.49c1.22-3.24 2.95-5.99 5.19-8.27 2.24-2.27 4.94-4.04 8.08-5.29s6.67-1.88 10.58-1.88 7.45.62 10.62 1.88c3.17 1.25 5.88 3.01 8.12 5.29s3.97 5.03 5.19 8.27 1.83 6.84 1.83 10.82-.61 7.57-1.83 10.77c-1.22 3.21-2.95 5.95-5.19 8.22-2.24 2.28-4.95 4.02-8.12 5.24s-6.72 1.83-10.62 1.83c-3.91 0-7.44-.61-10.58-1.83s-5.83-2.96-8.08-5.24c-2.24-2.27-3.98-5.02-5.19-8.22-1.22-3.21-1.83-6.8-1.83-10.77 0-3.98.61-7.58 1.83-10.82zm12.4 16.63c.39 1.89 1.04 3.59 1.97 5.1s2.16 2.71 3.7 3.6c1.54.9 3.46 1.35 5.77 1.35s4.24-.45 5.82-1.35c1.57-.9 2.82-2.1 3.75-3.6.93-1.51 1.59-3.21 1.97-5.1.39-1.89.58-3.83.58-5.82s-.19-3.94-.58-5.86-1.04-3.62-1.97-5.1c-.93-1.47-2.18-2.68-3.75-3.61s-3.51-1.39-5.82-1.39-4.23.47-5.77 1.39c-1.54.93-2.77 2.13-3.7 3.61s-1.58 3.17-1.97 5.1-.58 3.88-.58 5.86c.01 1.99.2 3.93.58 5.82z"/><path d="m1454.61 300.53v-9.13h8.17v-3.85c0-4.42 1.38-8.04 4.14-10.87 2.75-2.82 6.92-4.23 12.5-4.23 1.22 0 2.43.05 3.65.14 1.22.1 2.4.18 3.56.24v10.19c-1.6-.19-3.27-.29-5-.29-1.86 0-3.19.43-3.99 1.3-.8.86-1.2 2.32-1.2 4.37v2.98h9.42v9.13h-9.42v40.58h-13.65v-40.58h-8.18z"/><path d="m953.28 390.39c-.9-1.44-2.02-2.71-3.37-3.8s-2.87-1.94-4.57-2.55-3.48-.91-5.34-.91c-3.4 0-6.28.66-8.65 1.97s-4.3 3.08-5.77 5.29c-1.48 2.21-2.55 4.73-3.22 7.55s-1.01 5.74-1.01 8.75c0 2.88.34 5.69 1.01 8.41s1.74 5.18 3.22 7.35c1.47 2.18 3.4 3.93 5.77 5.24 2.37 1.32 5.25 1.97 8.65 1.97 4.62 0 8.22-1.41 10.82-4.23s4.18-6.54 4.76-11.15h14.62c-.39 4.3-1.38 8.17-2.98 11.63s-3.72 6.41-6.35 8.85-5.7 4.3-9.23 5.58-7.4 1.92-11.63 1.92c-5.26 0-9.98-.91-14.18-2.74s-7.74-4.34-10.62-7.55-5.1-6.97-6.64-11.3-2.31-8.99-2.31-13.99c0-5.13.77-9.89 2.31-14.28s3.75-8.22 6.64-11.49c2.88-3.27 6.42-5.83 10.62-7.69s8.93-2.79 14.18-2.79c3.78 0 7.36.55 10.72 1.63 3.37 1.09 6.38 2.68 9.04 4.76s4.86 4.66 6.59 7.74 2.82 6.6 3.27 10.58h-14.62c-.26-1.73-.84-3.31-1.73-4.75z"/><path d="m979.34 405.1c1.22-3.24 2.95-5.99 5.19-8.27 2.24-2.27 4.94-4.04 8.08-5.29s6.67-1.88 10.58-1.88 7.45.62 10.62 1.88c3.17 1.25 5.88 3.01 8.12 5.29s3.97 5.03 5.19 8.27 1.83 6.84 1.83 10.82-.61 7.57-1.83 10.77c-1.22 3.21-2.95 5.95-5.19 8.22-2.24 2.28-4.95 4.02-8.12 5.24s-6.72 1.83-10.62 1.83c-3.91 0-7.44-.61-10.58-1.83s-5.83-2.96-8.08-5.24c-2.24-2.27-3.98-5.02-5.19-8.22-1.22-3.21-1.83-6.8-1.83-10.77 0-3.98.61-7.58 1.83-10.82zm12.4 16.63c.39 1.89 1.04 3.59 1.97 5.1s2.16 2.71 3.7 3.6c1.54.9 3.46 1.35 5.77 1.35s4.24-.45 5.82-1.35c1.57-.9 2.82-2.1 3.75-3.6.93-1.51 1.59-3.21 1.97-5.1.39-1.89.58-3.83.58-5.82s-.19-3.94-.58-5.86-1.04-3.62-1.97-5.1c-.93-1.47-2.18-2.68-3.75-3.61s-3.51-1.39-5.82-1.39-4.23.47-5.77 1.39c-1.54.93-2.77 2.13-3.7 3.61s-1.58 3.17-1.97 5.1c-.39 1.92-.58 3.88-.58 5.86 0 1.99.19 3.93.58 5.82z"/><path d="m1051.83 372.07v68.65h-13.65v-68.65z"/><path d="m1076.64 372.07v68.65h-13.65v-68.65z"/><path d="m1086.83 406.3c.19-3.2.99-5.86 2.4-7.98s3.21-3.81 5.38-5.1c2.18-1.28 4.63-2.2 7.36-2.74 2.72-.54 5.46-.82 8.22-.82 2.5 0 5.03.18 7.6.53 2.56.35 4.9 1.04 7.02 2.07 2.11 1.03 3.85 2.45 5.19 4.28 1.35 1.83 2.02 4.25 2.02 7.26v25.87c0 2.24.13 4.39.39 6.44s.71 3.59 1.35 4.62h-13.85c-.26-.77-.47-1.55-.62-2.36-.16-.8-.27-1.62-.34-2.45-2.18 2.24-4.74 3.81-7.69 4.71s-5.96 1.35-9.04 1.35c-2.37 0-4.58-.29-6.63-.87s-3.85-1.47-5.38-2.69c-1.54-1.22-2.74-2.75-3.61-4.62-.87-1.86-1.3-4.07-1.3-6.63 0-2.82.5-5.15 1.49-6.97.99-1.83 2.27-3.28 3.85-4.37 1.57-1.09 3.37-1.91 5.38-2.45 2.02-.54 4.05-.98 6.11-1.3 2.05-.32 4.07-.58 6.06-.77s3.75-.48 5.29-.87 2.75-.94 3.65-1.68 1.31-1.81 1.25-3.22c0-1.47-.24-2.64-.72-3.51s-1.12-1.54-1.92-2.02-1.73-.8-2.79-.96-2.2-.24-3.41-.24c-2.69 0-4.81.58-6.35 1.73s-2.44 3.08-2.69 5.77h-13.67zm31.54 10.1c-.58.51-1.3.91-2.16 1.2-.87.29-1.8.53-2.79.72s-2.04.35-3.12.48c-1.09.13-2.18.29-3.27.48-1.03.19-2.04.45-3.03.77-1 .32-1.86.75-2.6 1.3s-1.33 1.23-1.78 2.07c-.45.83-.67 1.89-.67 3.17 0 1.22.22 2.24.67 3.08.45.83 1.06 1.49 1.83 1.97s1.67.82 2.69 1.01 2.08.29 3.17.29c2.69 0 4.78-.45 6.25-1.35s2.56-1.97 3.27-3.22c.7-1.25 1.14-2.52 1.3-3.8s.24-2.31.24-3.08z"/><path d="m1156.25 372.07v25h.19c1.67-2.56 3.93-4.44 6.78-5.63s5.82-1.78 8.9-1.78c2.5 0 4.97.51 7.4 1.54s4.63 2.6 6.59 4.71c1.95 2.12 3.54 4.82 4.76 8.13s1.83 7.23 1.83 11.78-.61 8.48-1.83 11.78-2.8 6.01-4.76 8.13c-1.96 2.11-4.15 3.69-6.59 4.71s-4.9 1.54-7.4 1.54c-3.66 0-6.92-.58-9.81-1.73s-5.06-3.11-6.54-5.87h-.19v6.35h-12.98v-68.65h13.65zm22.12 37.79c-.45-1.92-1.15-3.62-2.12-5.1-.96-1.47-2.16-2.64-3.61-3.51-1.44-.87-3.19-1.3-5.24-1.3-1.99 0-3.72.43-5.19 1.3-1.48.87-2.69 2.04-3.66 3.51-.96 1.48-1.67 3.17-2.11 5.1-.45 1.92-.67 3.94-.67 6.06 0 2.05.22 4.04.67 5.96s1.15 3.62 2.11 5.1 2.18 2.65 3.66 3.51c1.47.87 3.2 1.3 5.19 1.3 2.05 0 3.8-.43 5.24-1.3s2.64-2.04 3.61-3.51c.96-1.47 1.67-3.17 2.12-5.1.45-1.92.67-3.91.67-5.96 0-2.12-.23-4.14-.67-6.06z"/><path d="m1201.64 405.1c1.22-3.24 2.95-5.99 5.19-8.27 2.24-2.27 4.94-4.04 8.08-5.29s6.67-1.88 10.58-1.88 7.45.62 10.62 1.88c3.17 1.25 5.88 3.01 8.12 5.29s3.97 5.03 5.19 8.27 1.83 6.84 1.83 10.82-.61 7.57-1.83 10.77c-1.22 3.21-2.95 5.95-5.19 8.22-2.24 2.28-4.95 4.02-8.12 5.24s-6.72 1.83-10.62 1.83c-3.91 0-7.44-.61-10.58-1.83s-5.83-2.96-8.08-5.24c-2.24-2.27-3.98-5.02-5.19-8.22-1.22-3.21-1.83-6.8-1.83-10.77 0-3.98.61-7.58 1.83-10.82zm12.4 16.63c.39 1.89 1.04 3.59 1.97 5.1s2.16 2.71 3.7 3.6c1.54.9 3.46 1.35 5.77 1.35s4.24-.45 5.82-1.35c1.57-.9 2.82-2.1 3.75-3.6.93-1.51 1.59-3.21 1.97-5.1.39-1.89.58-3.83.58-5.82s-.19-3.94-.58-5.86-1.04-3.62-1.97-5.1c-.93-1.47-2.18-2.68-3.75-3.61s-3.51-1.39-5.82-1.39-4.23.47-5.77 1.39c-1.54.93-2.77 2.13-3.7 3.61s-1.58 3.17-1.97 5.1c-.39 1.92-.58 3.88-.58 5.86 0 1.99.19 3.93.58 5.82z"/><path d="m1273.08 391.01v9.23h.19c.64-1.54 1.51-2.96 2.6-4.28 1.09-1.31 2.34-2.43 3.75-3.37 1.41-.93 2.92-1.65 4.52-2.16s3.27-.77 5-.77c.9 0 1.89.16 2.98.48v12.69c-.64-.13-1.41-.24-2.31-.34s-1.76-.14-2.6-.14c-2.5 0-4.62.42-6.35 1.25s-3.12 1.97-4.18 3.41-1.81 3.13-2.26 5.05-.67 4.01-.67 6.25v22.4h-13.65v-49.71h12.98z"/><path d="m1296.92 406.3c.19-3.2.99-5.86 2.4-7.98s3.21-3.81 5.38-5.1c2.18-1.28 4.63-2.2 7.36-2.74 2.72-.54 5.46-.82 8.22-.82 2.5 0 5.03.18 7.6.53 2.56.35 4.9 1.04 7.02 2.07 2.11 1.03 3.85 2.45 5.19 4.28 1.35 1.83 2.02 4.25 2.02 7.26v25.87c0 2.24.13 4.39.39 6.44s.71 3.59 1.35 4.62h-13.85c-.26-.77-.47-1.55-.62-2.36-.16-.8-.27-1.62-.34-2.45-2.18 2.24-4.74 3.81-7.69 4.71s-5.96 1.35-9.04 1.35c-2.37 0-4.58-.29-6.63-.87s-3.85-1.47-5.38-2.69c-1.54-1.22-2.74-2.75-3.61-4.62-.87-1.86-1.3-4.07-1.3-6.63 0-2.82.5-5.15 1.49-6.97.99-1.83 2.27-3.28 3.85-4.37 1.57-1.09 3.37-1.91 5.38-2.45 2.02-.54 4.05-.98 6.11-1.3 2.05-.32 4.07-.58 6.06-.77s3.75-.48 5.29-.87 2.75-.94 3.65-1.68 1.31-1.81 1.25-3.22c0-1.47-.24-2.64-.72-3.51s-1.12-1.54-1.92-2.02-1.73-.8-2.79-.96-2.2-.24-3.41-.24c-2.69 0-4.81.58-6.35 1.73s-2.44 3.08-2.69 5.77h-13.67zm31.54 10.1c-.58.51-1.3.91-2.16 1.2-.87.29-1.8.53-2.79.72s-2.04.35-3.12.48c-1.09.13-2.18.29-3.27.48-1.03.19-2.04.45-3.03.77-1 .32-1.86.75-2.6 1.3s-1.33 1.23-1.78 2.07c-.45.83-.67 1.89-.67 3.17 0 1.22.22 2.24.67 3.08.45.83 1.06 1.49 1.83 1.97s1.67.82 2.69 1.01 2.08.29 3.17.29c2.69 0 4.78-.45 6.25-1.35s2.56-1.97 3.27-3.22c.7-1.25 1.14-2.52 1.3-3.8s.24-2.31.24-3.08z"/><path d="m1379.99 391.01v9.13h-10v24.61c0 2.31.38 3.85 1.15 4.62s2.31 1.15 4.61 1.15c.77 0 1.51-.03 2.21-.1.71-.06 1.38-.16 2.02-.29v10.58c-1.15.19-2.44.32-3.85.39-1.41.06-2.79.09-4.13.09-2.12 0-4.12-.14-6.01-.43s-3.56-.85-5-1.68-2.58-2.02-3.41-3.56-1.25-3.56-1.25-6.06v-29.33h-8.27v-9.13h8.27v-14.9h13.67v14.9h9.99z"/><path d="m1386.92 383.32v-11.25h13.65v11.25zm13.65 7.69v49.71h-13.65v-49.71z"/><path d="m1423.65 440.72-17.02-49.71h14.33l10.48 33.94h.19l10.48-33.94h13.56l-16.83 49.71z"/><path d="m1475.95 428.8c2.05 1.99 5 2.98 8.85 2.98 2.75 0 5.13-.69 7.12-2.07s3.21-2.84 3.65-4.37h12.02c-1.92 5.96-4.87 10.23-8.85 12.79s-8.78 3.85-14.42 3.85c-3.91 0-7.44-.63-10.58-1.88s-5.8-3.03-7.98-5.34-3.86-5.06-5.05-8.27-1.78-6.73-1.78-10.58c0-3.72.61-7.18 1.83-10.38 1.22-3.21 2.95-5.98 5.19-8.32s4.92-4.18 8.03-5.53 6.55-2.02 10.34-2.02c4.23 0 7.92.82 11.06 2.45s5.72 3.83 7.74 6.59 3.48 5.9 4.37 9.42c.9 3.53 1.22 7.21.96 11.06h-35.87c.2 4.43 1.32 7.63 3.37 9.62zm15.44-26.16c-1.63-1.79-4.12-2.69-7.45-2.69-2.18 0-3.99.37-5.43 1.1-1.44.74-2.6 1.65-3.46 2.74-.87 1.09-1.48 2.24-1.83 3.46s-.56 2.31-.62 3.27h22.21c-.65-3.45-1.79-6.08-3.42-7.88z"/><path d="m903.86 484.45v-12.69h56.25v12.69h-20.58v55.96h-15.1v-55.96z"/><path d="m980.2 471.76v25.87h.29c1.73-2.88 3.94-4.98 6.63-6.3 2.69-1.31 5.32-1.97 7.88-1.97 3.65 0 6.65.5 8.99 1.49 2.34 1 4.18 2.37 5.53 4.14 1.35 1.76 2.29 3.91 2.84 6.44.54 2.53.82 5.34.82 8.41v30.58h-13.65v-28.08c0-4.1-.64-7.16-1.92-9.18s-3.56-3.03-6.83-3.03c-3.72 0-6.41 1.11-8.08 3.32s-2.5 5.85-2.5 10.91v26.06h-13.65v-68.65h13.65z"/><path d="m1023.95 483.01v-11.25h13.65v11.25zm13.65 7.69v49.71h-13.65v-49.71z"/><path d="m1061.35 490.7v6.92h.29c1.73-2.88 3.97-4.98 6.73-6.3s5.58-1.97 8.46-1.97c3.65 0 6.65.5 8.99 1.49 2.34 1 4.18 2.37 5.53 4.14 1.35 1.76 2.29 3.91 2.84 6.44.54 2.53.82 5.34.82 8.41v30.58h-13.65v-28.08c0-4.1-.64-7.16-1.92-9.18s-3.56-3.03-6.83-3.03c-3.72 0-6.41 1.11-8.08 3.32s-2.5 5.85-2.5 10.91v26.06h-13.65v-49.71z"/><path d="m1120.29 471.76v36.83l17.21-17.88h16.15l-18.75 18.27 20.86 31.44h-16.54l-13.65-22.21-5.29 5.1v17.12h-13.65v-68.65h13.66z"/><path d="m1160.96 483.01v-11.25h13.65v11.25zm13.66 7.69v49.71h-13.65v-49.71z"/><path d="m1198.36 490.7v6.92h.29c1.73-2.88 3.97-4.98 6.73-6.3s5.58-1.97 8.46-1.97c3.65 0 6.65.5 8.99 1.49 2.34 1 4.18 2.37 5.53 4.14 1.35 1.76 2.29 3.91 2.84 6.44.54 2.53.82 5.34.82 8.41v30.58h-13.65v-28.08c0-4.1-.64-7.16-1.92-9.18s-3.56-3.03-6.83-3.03c-3.72 0-6.41 1.11-8.08 3.32s-2.5 5.85-2.5 10.91v26.06h-13.65v-49.71z"/><path d="m1289.37 544.07c-.55 2.56-1.72 4.95-3.51 7.16s-4.39 4.09-7.79 5.63-7.95 2.31-13.65 2.31c-2.44 0-4.92-.31-7.45-.91-2.53-.61-4.84-1.56-6.92-2.84s-3.81-2.93-5.19-4.95-2.16-4.44-2.36-7.26h13.56c.64 2.56 1.89 4.34 3.75 5.34 1.86.99 4.01 1.49 6.44 1.49 3.85 0 6.65-1.15 8.41-3.46s2.61-5.22 2.55-8.75v-6.54h-.19c-1.48 2.63-3.57 4.57-6.3 5.82-2.72 1.25-5.59 1.88-8.61 1.88-3.72 0-6.92-.66-9.62-1.97-2.69-1.31-4.9-3.11-6.64-5.38-1.73-2.28-3-4.94-3.8-7.98s-1.2-6.27-1.2-9.66c0-3.2.46-6.3 1.4-9.28.93-2.98 2.29-5.61 4.09-7.88 1.79-2.27 4.02-4.09 6.68-5.43 2.66-1.35 5.72-2.02 9.18-2.02 3.27 0 6.14.61 8.61 1.83s4.53 3.27 6.2 6.15h.19v-6.64h12.98v46.54c.01 1.96-.26 4.23-.81 6.8zm-18.7-16.54c1.47-.77 2.69-1.79 3.65-3.08.96-1.28 1.68-2.74 2.16-4.37s.72-3.35.72-5.14c0-2.05-.19-3.99-.58-5.82s-1.03-3.45-1.92-4.86c-.9-1.41-2.08-2.53-3.56-3.37-1.47-.83-3.33-1.25-5.58-1.25-1.92 0-3.57.38-4.95 1.15s-2.53 1.81-3.46 3.12c-.93 1.32-1.6 2.82-2.02 4.52s-.62 3.48-.62 5.34c0 1.8.18 3.57.53 5.34.35 1.76.96 3.35 1.83 4.76s2 2.56 3.41 3.46 3.17 1.35 5.29 1.35c1.93 0 3.62-.38 5.1-1.15z"/><path d="m695.28 93.61c1.17-2.67 2.77-4.98 4.79-6.94s4.37-3.5 7.05-4.62c2.69-1.11 5.53-1.67 8.55-1.67s5.87.56 8.53 1.67c2.66 1.12 4.99 2.66 6.99 4.62s3.58 4.27 4.76 6.94c1.17 2.66 1.76 5.55 1.76 8.64 0 3.17-.59 6.1-1.76 8.79-1.18 2.68-2.77 5.02-4.76 6.99-2 1.98-4.33 3.52-6.99 4.62s-5.51 1.65-8.53 1.65-5.87-.55-8.55-1.65c-2.67-1.1-5.03-2.63-7.05-4.62-2.02-1.97-3.62-4.31-4.79-6.99-1.18-2.69-1.77-5.61-1.77-8.79 0-3.09.59-5.97 1.77-8.64zm3.62 16.13c.92 2.3 2.19 4.28 3.81 5.97 1.63 1.68 3.55 3.01 5.76 3.97 2.22.96 4.62 1.44 7.2 1.44 2.55 0 4.93-.48 7.12-1.44s4.1-2.28 5.73-3.97 2.9-3.67 3.82-5.97c.92-2.29 1.38-4.79 1.38-7.49 0-2.62-.46-5.07-1.38-7.35-.92-2.27-2.19-4.24-3.82-5.91-1.63-1.66-3.54-2.98-5.73-3.94s-4.57-1.44-7.12-1.44c-2.58 0-4.98.48-7.2 1.44s-4.13 2.27-5.76 3.94c-1.62 1.66-2.89 3.63-3.81 5.91-.93 2.27-1.39 4.72-1.39 7.35 0 2.7.46 5.2 1.39 7.49zm18.12-20.24c3.05 0 5.32.61 6.78 1.82 1.47 1.22 2.2 3.06 2.2 5.53 0 2.31-.64 4.01-1.93 5.09-1.3 1.07-2.9 1.71-4.82 1.91l7.35 11.35h-4.29l-6.99-11.05h-4.24v11.05h-4v-25.7zm-1.75 11.4c.9 0 1.74-.03 2.55-.09.8-.06 1.52-.22 2.15-.5s1.13-.69 1.5-1.26.55-1.36.55-2.38c0-.86-.16-1.55-.49-2.05-.33-.51-.77-.9-1.3-1.18s-1.14-.46-1.83-.56c-.68-.1-1.35-.15-2.02-.15h-5.29v8.17z" opacity=".5"/></g></svg>