<?xml version="1.0" encoding="UTF-8"?>
<svg width="212px" height="17px" id="Layer_1" xmlns="http://www.w3.org/2000/svg" viewBox="0 0 342.53 25.73">
  <defs>
    <style>.cls-1{fill:#002e6d;}.cls-2{fill:#0071ce;}</style>
  </defs>
  <g>
    <path class="cls-2" d="M227.76,25.34c-.42,0-.69-.38-.56-.8L235.64,.8c.17-.49,.62-.8,1.11-.8h3.19c.49,0,.94,.31,1.11,.8l8.44,23.74c.14,.42-.14,.8-.56,.8h-3.37c-.49,0-.94-.31-1.11-.8l-1.25-3.61h-9.72l-1.25,3.61c-.17,.49-.62,.8-1.11,.8h-3.37Zm10.59-18.47l-3.26,9.44h6.53l-3.26-9.44Z"/>
    <path class="cls-2" d="M264.9,10.48c.24,.31,.14,.83-.21,1.04l-2.43,1.32c-.49,.31-.9,.24-1.28-.21-.66-.76-1.67-1.11-2.85-1.11-1.56,0-2.26,.66-2.26,1.42s1.01,1.04,3.61,1.56c2.92,.59,6.25,1.63,6.25,5.38,0,2.74-2.08,5.87-7.39,5.8-3.68,0-6.14-1.25-7.57-3.33-.21-.35-.1-.9,.28-1.11l2.78-1.49c.45-.28,.9-.17,1.21,.28,.83,1.08,2.08,1.56,3.54,1.56,1.63,0,2.4-.69,2.4-1.56,0-.94-1.67-1.22-3.68-1.6-3.12-.56-6.25-1.63-6.25-5.35,0-2.92,2.81-5.52,7.12-5.45,3.26,0,5.35,1.08,6.73,2.85Z"/>
    <path class="cls-2" d="M276.15,25.69c-5,0-8.99-4.03-8.99-9.02s3.99-9.03,8.99-9.03c3.64,0,6.53,1.91,8.02,4.72,.17,.38,0,.9-.38,1.08l-2.67,1.15c-.49,.21-.94,.07-1.22-.38-.8-1.25-2.15-2.05-3.71-2.05-2.5,0-4.44,2.01-4.44,4.51s1.94,4.51,4.44,4.51c1.56,0,2.92-.8,3.71-2.05,.28-.45,.73-.59,1.22-.38l2.67,1.15c.38,.17,.56,.69,.38,1.08-1.49,2.81-4.37,4.72-8.02,4.72Z"/>
    <path class="cls-2" d="M294.73,25.69c-5.41,0-9.16-4.03-9.16-9.02s4.03-9.03,9.02-9.03c5.31,0,8.96,3.99,8.96,8.99v.9c0,.45-.38,.83-.83,.83h-12.57c.56,1.91,2.12,3.16,4.62,3.16,1.63,0,3.02-.73,3.85-1.98,.31-.42,.76-.52,1.18-.28l2.33,1.39c.38,.21,.49,.76,.28,1.11-1.56,2.33-4.17,3.92-7.67,3.92Zm-.1-13.89c-2.01,0-3.54,1.11-4.27,2.74h8.4c-.62-1.8-2.12-2.74-4.13-2.74Z"/>
    <path class="cls-2" d="M306.32,25.34c-.45,0-.83-.38-.83-.83V8.82c0-.45,.38-.83,.83-.83h3.06c.45,0,.83,.38,.83,.83v1.56c1.15-1.67,2.99-2.74,5.31-2.74,4.34,0,6.73,2.81,6.73,7.29v9.58c0,.45-.38,.83-.83,.83h-3.16c-.45,0-.83-.38-.83-.83V15.55c0-2.43-1.32-3.85-3.54-3.85s-3.65,1.42-3.65,4.34v8.47c0,.45-.38,.83-.83,.83h-3.09Z"/>
    <path class="cls-2" d="M332.53,25.69c-3.68,0-8.37-2.92-8.37-9.02s4.51-9.03,8.44-9.03c2.26,0,4.03,.83,5.17,2.05V.83c0-.45,.38-.83,.83-.83h3.09c.45,0,.83,.38,.83,.83V24.51c0,.45-.38,.83-.83,.83h-3.09c-.45,0-.83-.38-.83-.83v-1.11c-1.15,1.35-2.98,2.29-5.24,2.29Zm.94-4.37c2.57,0,4.44-2.12,4.44-4.69s-1.87-4.65-4.44-4.65-4.65,1.98-4.65,4.65,2.01,4.69,4.65,4.69Z"/>
  </g>
  <g>
    <path class="cls-1" d="M92.05,15.11c-2.36-.47-3.32-.73-3.32-1.39,0-.61,.54-1.26,2.04-1.26,1.22,0,2.26,.53,2.77,1.42,.12,.2,.38,.27,.6,.15l3.02-1.67c.11-.06,.19-.17,.22-.29,.03-.12,0-.25-.06-.35-1.36-2.05-3.49-3.05-6.51-3.05h-.16c-2.08,0-3.9,.67-5.14,1.88-.93,.92-1.45,2.09-1.45,3.3,0,3.55,2.99,4.56,5.91,5.08l.25,.05c1.77,.33,3.18,.6,3.18,1.38,0,.69-.67,1.39-2.17,1.39s-2.58-.62-3.18-1.8c-.06-.11-.16-.2-.28-.24-.11-.03-.24-.02-.34,.04l-3.33,1.84c-.1,.06-.18,.16-.22,.27-.03,.12-.02,.24,.04,.34,1.33,2.38,3.66,3.54,7.11,3.54h.14c2.7,0,4.32-1.04,5.21-1.92,1.01-.99,1.61-2.33,1.61-3.58,0-3.44-2.86-4.49-5.94-5.11"/>
    <path class="cls-1" d="M107.16,15.11c-2.36-.47-3.32-.73-3.32-1.39,0-.61,.54-1.26,2.04-1.26,1.22,0,2.26,.53,2.77,1.42,.12,.2,.38,.27,.6,.15l3.02-1.67c.11-.06,.19-.17,.22-.29,.03-.12,0-.25-.06-.35-1.36-2.05-3.49-3.05-6.51-3.05h-.16c-2.08,0-3.9,.67-5.13,1.88-.93,.92-1.45,2.09-1.45,3.3,0,3.55,2.99,4.56,5.91,5.08l.25,.05c1.77,.33,3.18,.6,3.18,1.38,0,.69-.67,1.39-2.17,1.39s-2.58-.62-3.18-1.8c-.06-.11-.16-.2-.28-.24-.11-.03-.24-.02-.34,.04l-3.33,1.84c-.1,.06-.18,.16-.22,.27-.03,.12-.02,.24,.04,.34,1.33,2.38,3.66,3.54,7.11,3.54h.14c2.7,0,4.32-1.04,5.21-1.92,1.01-.99,1.61-2.33,1.61-3.58,0-3.44-2.86-4.49-5.94-5.11"/>
    <path class="cls-1" d="M167.92,18.08v-4.79c0-.19,.15-.34,.34-.34h2.74c.23,0,.42-.19,.42-.42v-3.1c0-.23-.19-.42-.42-.42h-2.74c-.19,0-.34-.15-.34-.34V3.72c0-.32-.34-.52-.62-.37l-3.83,2.11c-.13,.07-.22,.22-.22,.37v2.84c0,.19-.15,.34-.34,.34h-1.7c-.23,0-.42,.19-.42,.42v3.1c0,.23,.19,.42,.42,.42h1.7c.19,0,.34,.15,.34,.34v5.84c0,3.44,2.79,6.2,6.24,6.21,.58,0,1.13,.05,1.66-.06,.16-.03,.27-.19,.27-.35v-3.83c0-.15-.14-.26-.29-.22-.23,.07-.46,.11-.71,.11-1.16,0-2.12-.79-2.41-1.86,0,0-.09-.43-.09-1.05"/>
    <path class="cls-1" d="M178.05,17.32v-7.91c0-.23-.19-.42-.42-.42h-3.86c-.23,0-.42,.19-.42,.42v8.36c0,2.34,.69,4.33,1.99,5.75,1.29,1.41,3.1,2.16,5.23,2.16,1.74,0,3.28-.41,4.71-1.54l.08-.07v.85c0,.23,.19,.42,.42,.42h3.86c.23,0,.42-.19,.42-.42V9.41c0-.23-.19-.42-.42-.42h-3.86c-.23,0-.42,.19-.42,.42v7.84c0,2.62-1.38,4.18-3.69,4.18s-3.62-1.5-3.62-4.1"/>
    <path class="cls-1" d="M146.87,17.32v-7.91c0-.23-.19-.42-.42-.42h-3.86c-.23,0-.42,.19-.42,.42v8.36c0,2.34,.69,4.33,1.99,5.75,1.29,1.41,3.1,2.16,5.23,2.16,1.74,0,3.28-.41,4.71-1.54l.08-.07v.94c0,.19,.15,.34,.34,.34h4.04c.19,0,.34-.15,.34-.34V9.41c0-.23-.19-.42-.42-.42h-3.86c-.23,0-.42,.19-.42,.42v7.84c0,2.62-1.38,4.18-3.69,4.18s-3.62-1.5-3.62-4.1"/>
    <path class="cls-1" d="M216.56,0h-3.95c-.23,0-.42,.19-.42,.42V25.01c0,.19,.15,.34,.34,.34h4.04c.19,0,.34-.15,.34-.34V.34c0-.19-.15-.34-.34-.34"/>
    <path class="cls-1" d="M73.09,12.69c2.44,0,4.14,1.81,4.14,4.41s-1.74,4.55-4.14,4.55-4.21-1.91-4.21-4.55,1.73-4.41,4.21-4.41m-8.84,4.41c0,5.24,3.52,8.72,8.72,8.58,1.56-.04,3.04-.65,4.26-1.62v.84c0,.23,.19,.42,.42,.42h3.86c.23,0,.42-.19,.42-.42V9.41c0-.23-.19-.42-.42-.42h-3.86c-.23,0-.42,.19-.42,.42v.85l-.08-.06c-1.31-1.01-2.82-1.52-4.48-1.52-5.03,0-8.41,3.39-8.41,8.43"/>
    <path class="cls-1" d="M200.82,12.69c2.44,0,4.14,1.81,4.14,4.41s-1.74,4.55-4.14,4.55-4.21-1.91-4.21-4.55,1.73-4.41,4.21-4.41m-8.84,4.41c0,5.24,3.52,8.72,8.72,8.58,1.56-.04,3.04-.65,4.26-1.62v.92c0,.19,.15,.34,.34,.34h4.04c.19,0,.34-.15,.34-.34V9.32c0-.18-.15-.33-.33-.33h-4.04c-.19,0-.34,.15-.34,.34v.93l-.08-.06c-1.31-1.01-2.82-1.52-4.48-1.52-5.03,0-8.41,3.39-8.41,8.43"/>
    <path class="cls-1" d="M58.51,.21l-8.5,12.57L41.51,.21c-.09-.13-.24-.21-.4-.21h-2.93c-.27,0-.49,.22-.49,.49V24.85c0,.27,.22,.49,.49,.49h3.74c.27,0,.49-.22,.49-.49V9.95l7.2,10.65c.19,.29,.61,.29,.81,0l7.2-10.65v14.9c0,.27,.22,.49,.49,.49h3.74c.27,0,.49-.22,.49-.49V.49c0-.27-.22-.49-.49-.49h-2.93c-.16,0-.31,.08-.4,.21"/>
    <path class="cls-1" d="M135.78,.21l-8.5,12.57L118.78,.21c-.09-.13-.24-.21-.4-.21h-2.93c-.27,0-.49,.22-.49,.49V24.85c0,.27,.22,.49,.49,.49h3.74c.27,0,.49-.22,.49-.49V9.95l7.2,10.65c.19,.29,.61,.29,.81,0l7.2-10.65v14.9c0,.27,.22,.49,.49,.49h3.74c.27,0,.49-.22,.49-.49V.49c0-.27-.22-.49-.49-.49h-2.93c-.16,0-.31,.08-.4,.21"/>
    <path class="cls-1" d="M31.64,21.9c0-2.12-1.72-3.83-3.83-3.83s-3.83,1.72-3.83,3.83,1.72,3.83,3.83,3.83,3.83-1.72,3.83-3.83"/>
    <path class="cls-1" d="M19.65,21.9c0-2.12-1.72-3.83-3.83-3.83s-3.83,1.72-3.83,3.83,1.72,3.83,3.83,3.83,3.83-1.72,3.83-3.83"/>
    <path class="cls-1" d="M7.66,21.9c0-2.12-1.72-3.83-3.83-3.83s-3.83,1.72-3.83,3.83,1.72,3.83,3.83,3.83,3.83-1.72,3.83-3.83"/>
    <path class="cls-1" d="M25.65,12.5c0-2.12-1.72-3.83-3.83-3.83s-3.83,1.72-3.83,3.83,1.72,3.83,3.83,3.83,3.83-1.72,3.83-3.83"/>
    <path class="cls-1" d="M13.67,12.5c0-2.12-1.72-3.83-3.83-3.83s-3.83,1.72-3.83,3.83,1.72,3.83,3.83,3.83,3.83-1.72,3.83-3.83"/>
  </g>
</svg>