<svg id="Layer_1" data-name="Layer 1" xmlns="http://www.w3.org/2000/svg" viewBox="0 0 300.3 69.44"><defs><style>.cls-1{fill:#0aa147;}.cls-2{fill:#95c93d;}.cls-3{fill:#0c7b40;}</style></defs><title>sf-logo-rgb-bk-wordmark</title><path class="cls-1" d="M32.47,0a7.28,7.28,0,1,0,7.28,7.27A7.28,7.28,0,0,0,32.47,0Zm0,10a2.76,2.76,0,1,1,2.76-2.76A2.76,2.76,0,0,1,32.47,10Z"/><path class="cls-1" d="M32.48,43.53a7.28,7.28,0,1,0,7.27,7.27A7.29,7.29,0,0,0,32.48,43.53Zm0,10a2.76,2.76,0,1,1,2.75-2.76A2.76,2.76,0,0,1,32.48,53.56Z"/><path class="cls-1" d="M42.65,29A23.76,23.76,0,0,0,55.57,12.85a16.1,16.1,0,0,0-6.13,1.93,18.45,18.45,0,0,1-7.1,8.41l-.32.2-.39.23a18.18,18.18,0,0,1-2.31,1.13A18.29,18.29,0,0,1,33.73,26h0l-.58,0-.67,0h-.66l-.59,0a18.28,18.28,0,0,1-5.59-1.27h0a18.48,18.48,0,0,1-2.3-1.12l-.25-.15-.3-.18a18.47,18.47,0,0,1-7.32-8.61,16.22,16.22,0,0,0-6.09-1.85A23.74,23.74,0,0,0,22.3,29,23.78,23.78,0,0,0,9.37,45.23a16.14,16.14,0,0,0,6.1-1.85,18.44,18.44,0,0,1,7.32-8.6l.3-.19.25-.15a18,18,0,0,1,2.3-1.12h0a18.18,18.18,0,0,1,5.59-1.28l.59,0h.66l.67,0,.58,0h0a18.29,18.29,0,0,1,5.59,1.28,18.64,18.64,0,0,1,2.31,1.12l.4.24.32.2a18.47,18.47,0,0,1,7.09,8.4,16.15,16.15,0,0,0,6.14,1.93A23.73,23.73,0,0,0,42.65,29Z"/><path class="cls-2" d="M61,22.54a7.18,7.18,0,0,0-3.27-.78,7.28,7.28,0,0,0,0,14.55A7.18,7.18,0,0,0,61,35.53h0a7.27,7.27,0,0,0,0-13Zm-3.27,9.25A2.76,2.76,0,1,1,60.51,29,2.76,2.76,0,0,1,57.75,31.79Z"/><path class="cls-2" d="M7.27,21.76a7.18,7.18,0,0,0-3.35.83,7.27,7.27,0,1,0,3.35-.83Zm0,10A2.76,2.76,0,1,1,10,29,2.76,2.76,0,0,1,7.27,31.79Z"/><path class="cls-2" d="M9.64,47.34a18.21,18.21,0,0,0,4.93-1.22h0A18.49,18.49,0,0,0,25.64,33.33a18.84,18.84,0,0,0,.45-2.87c0-.47.05-.95.05-1.42s0-1-.05-1.42A18.41,18.41,0,0,0,14.57,11.95h0a18.23,18.23,0,0,0-4.93-1.22,29.3,29.3,0,0,1,4.48-4.49h0A23.76,23.76,0,0,1,31.23,26c0,.24.06.5.08.75q.11,1.12.11,2.27t-.11,2.27c0,.25,0,.5-.08.75a23.74,23.74,0,0,1-17.1,19.79A28.24,28.24,0,0,1,9.64,47.34Z"/><path class="cls-2" d="M55.31,47.34a18.21,18.21,0,0,1-4.93-1.22h0A18.49,18.49,0,0,1,39.32,33.33a18.84,18.84,0,0,1-.45-2.87c0-.47-.05-.95-.05-1.42s0-1,.05-1.42A18.41,18.41,0,0,1,50.38,11.95h0a18.23,18.23,0,0,1,4.93-1.22,29.3,29.3,0,0,0-4.48-4.49h0A23.76,23.76,0,0,0,33.73,26c0,.24-.06.5-.08.75q-.11,1.12-.11,2.27t.11,2.27c0,.25,0,.5.08.75a23.74,23.74,0,0,0,17.1,19.79A28.24,28.24,0,0,0,55.31,47.34Z"/><path class="cls-3" d="M38.86,30.46a18.84,18.84,0,0,0,.45,2.87,18.28,18.28,0,0,0-5.59-1.28c0-.24-.06-.5-.08-.75q-.11-1.12-.11-2.27t.11-2.27c0-.25,0-.5.08-.75a18.29,18.29,0,0,0,5.59-1.28,18.46,18.46,0,0,0-.45,2.87c0,.47-.05.94-.05,1.42S38.83,30,38.86,30.46Z"/><path class="cls-3" d="M31.42,29q0,1.15-.11,2.27c0,.25,0,.5-.08.75a18.18,18.18,0,0,0-5.59,1.28,18.84,18.84,0,0,0,.45-2.87c0-.47.05-.95.05-1.42s0-1-.05-1.42a18.41,18.41,0,0,0-.45-2.87A18.28,18.28,0,0,0,31.22,26c0,.24.06.5.08.75Q31.41,27.89,31.42,29Z"/><path d="M78.57,35c1.26,2,4.09,3.79,8,3.79C90.72,38.78,92,37,92,35.48c0-2.53-3.61-3.13-8.3-4.81-4.45-1.62-7.46-3.91-7.46-8.54,0-5.83,4.93-9.08,10.71-9.08C92,13,95.35,15,97.46,17.61l-4,4.27c-1.26-1.5-3.31-2.65-6.62-2.65-2.29,0-3.67,1.08-3.67,2.71,0,2.29,2.53,2.59,7.64,4.45,5.59,2,8.12,4.63,8.12,9,0,5.23-3.79,9.62-12.45,9.62-6.32,0-10.65-2.53-12.51-6.14Z"/><path d="M101.25,29.1c0-9.74,6.8-16,15.88-16s15,6.8,15,15.28c0,0,0,1.32-.12,2.53H108.4c.24,4.81,3.79,7.94,9.14,7.94a10.45,10.45,0,0,0,8.18-3.49l4.33,4.21A16.4,16.4,0,0,1,117.31,45c-9.5,0-16.06-6.14-16.06-15.64Zm23.52-3.25c0-3.61-3.43-6.62-7.64-6.62-4.51,0-8.24,2.95-8.54,6.62Z"/><path d="M151.63,13a15.94,15.94,0,0,1,12.15,5.23l-4.45,4.63a10.16,10.16,0,0,0-7.7-3.31A9.19,9.19,0,0,0,142.3,29a9.19,9.19,0,0,0,9.32,9.5,10.16,10.16,0,0,0,7.7-3.31l4.45,4.63a15.94,15.94,0,0,1-12.15,5.23c-9.14,0-16.48-6.8-16.48-16.06S142.48,13,151.63,13Z"/><path d="M166.53,13.94h7.28V31.63c0,4.75,2.83,6.8,6.62,6.8s6.62-2,6.62-6.86V13.94h7.28V32c0,8.78-6.38,13-14,13s-13.83-4.15-13.83-12.81Z"/><path d="M200.13,13.94h7.16v4.51c1.44-3.13,4.69-5.11,9-5.11a15.31,15.31,0,0,1,2.17.18v7a14.51,14.51,0,0,0-3-.3c-5,0-8.18,3.13-8.18,8.12V44.26h-7.16Z"/><path d="M223.18,13.94h7.22V44.26h-7.22Z"/><path d="M266.94,13.94V44.26h-7.22V39.87c-1,2.83-4.57,5.05-9.68,5.05-8.54,0-15.16-6.86-15.16-15.82S241.49,13.28,250,13.28c5.11,0,8.66,2.23,9.68,5.05V13.94ZM260.26,29.1A9.08,9.08,0,0,0,251,19.84a8.91,8.91,0,0,0-9,9.26,8.91,8.91,0,0,0,9,9.26A9.08,9.08,0,0,0,260.26,29.1Z"/><path d="M272.45,13.94h7.16v4.33c1.38-2.89,4.81-4.93,9.2-4.93,7.28,0,11.49,4.69,11.49,12.15V44.26h-7.22V26.51c0-4.09-2.35-6.74-6.44-6.74a6.76,6.76,0,0,0-7,7V44.26h-7.16Z"/><path d="M76.86,54.8h9.5v2.9H80v3H85.8v2.83H80v5.73H76.86Z"/><path d="M91.45,54.8h3.19V69.22H91.45Z"/><path d="M100.35,54.8h2.83l6.91,9v-9h3.08V69.22h-2.61L103.43,60v9.21h-3.08Z"/><path d="M123.65,54.8h2.83l6,14.42H129l-1-2.42h-6l-1,2.42h-3.39Zm3.52,9.46L125.08,59,123,64.25Z"/><path d="M137,54.8h2.83l6.91,9v-9h3.08V69.22h-2.61L140,60v9.21H137Z"/><path d="M162.47,54.57a7.65,7.65,0,0,1,5.83,2.69l-2.17,1.84a4.9,4.9,0,0,0-3.66-1.63,4.54,4.54,0,1,0,0,9.08,4.89,4.89,0,0,0,3.68-1.65l2.17,1.84a7.65,7.65,0,0,1-5.86,2.71,7.44,7.44,0,1,1,0-14.88Z"/><path d="M173,54.8h3.19V69.22H173Z"/><path d="M186.76,54.8h2.83l6,14.42h-3.39l-1-2.42h-6l-1,2.42h-3.39Zm3.52,9.46L188.19,59l-2.11,5.23Z"/><path d="M200.07,54.8h3.19V66.32h5.63v2.9h-8.81Z"/></svg>