<?xml version="1.0" encoding="UTF-8" standalone="no"?>
<svg width="577px" height="373px" viewBox="0 0 577 373" version="1.1" xmlns="http://www.w3.org/2000/svg" xmlns:xlink="http://www.w3.org/1999/xlink">
    <!-- Generator: Sketch 45.2 (43514) - http://www.bohemiancoding.com/sketch -->
    <title>Slice 1</title>
    <desc>Created with Sketch.</desc>
    <defs/>
    <g id="Page-1" stroke="none" stroke-width="1" fill="none" fill-rule="evenodd">
        <g id="TS_bmk_lg_rgb" fill-rule="nonzero">
            <path d="M529.756,232.823 C511.018,158.098 504.639,118.152 483.5,92.273 C472.143,78.293 436.111,31.076 284.714,53.518 C187.219,67.921 257.88,-6.175 152.946,0.509 C82.954,4.906 0.982,31.076 0.982,31.076 C0.982,31.076 30.79,46.078 51.294,162.291 C73.459,287.697 55.723,342.076 55.723,342.076 C80.361,333.086 124.451,320.506 182.295,318.32 C287.353,314.332 180.326,393.976 275.308,367.531 C502.252,304.4 574.459,365.67 576.795,362.695 C579.17,359.696 558.908,348.802 529.756,232.823 Z" id="Shape" fill="#005DAA"/>
            <g id="Group" transform="translate(71.000000, 153.000000)" fill="#FFFFFF">
                <polygon id="Shape" points="0.854 19.672 16.102 19.672 16.102 64.297 20.727 64.297 20.727 19.672 36.079 19.672 36.079 15.722 0.854 15.722"/>
                <path d="M167.968,6.255 L160.428,6.255 L160.428,19.735 L152.633,19.735 L152.633,26.264 L160.428,26.264 L160.428,55.151 C160.428,63.579 166.397,65.111 171.139,65.111 C175.877,65.111 177.084,64.713 177.084,64.713 L177.084,58.073 C174.709,58.186 173.634,58.186 173.634,58.186 C168.936,58.186 167.968,57.19 167.968,53.512 L167.968,26.263 L177.084,26.263 L177.084,19.734 L167.968,19.734 L167.968,6.255 Z" id="Shape"/>
                <path d="M132.883,29.587 C122.857,27.308 112.916,26.17 112.916,18.503 C112.916,10.4 119.884,7.877 126.879,7.877 C135.133,7.877 140.927,11.461 142.176,19.735 L150.101,19.735 C149.202,6.659 139.676,0.89 127.22,0.89 C115.873,0.89 104.624,6.479 104.624,19.117 C104.624,30.538 114.663,33.416 124.603,35.594 C134.539,37.78 144.48,39.256 144.48,47.797 C144.48,56.776 136.191,59.133 128.697,59.133 C119.286,59.133 112.378,54.849 110.89,47.418 L102.919,47.418 C104.457,59.533 114.483,66.108 128.437,66.108 C139.775,66.108 152.767,60.789 152.767,47.537 C152.765,35.337 142.823,31.848 132.883,29.587 Z" id="Shape"/>
                <path d="M201.391,18.634 C191.361,18.634 182.718,22.553 182.285,33.725 L189.702,33.725 C190.047,27.1 194.672,25.179 200.961,25.179 C205.661,25.179 210.995,26.228 210.995,32.68 C210.995,38.265 204.019,37.742 195.81,39.321 C188.134,40.791 180.531,42.973 180.531,53.18 C180.531,61.575 187.255,65.465 195.464,65.465 C202.158,65.465 206.499,63.725 210.923,59.308 L210.923,64.714 L218.318,64.714 L218.318,31.728 C218.316,21.153 209.51,18.634 201.391,18.634 Z M210.9,48.869 C210.9,53.262 206.883,59.239 197.12,59.239 C192.576,59.239 188.398,56.873 188.398,52.659 C188.398,47.163 192.576,45.427 197.461,44.556 C202.441,43.668 208.026,43.596 210.9,41.496 L210.9,48.869 Z" id="Shape"/>
                <path d="M53.593,28.174 C48.627,28.174 43.935,31.033 42.37,35.253 L42.231,35.253 L42.231,15.722 L37.944,15.722 L37.944,64.297 L42.231,64.297 L42.231,43.823 C42.37,36.954 46.45,31.775 53.256,31.775 C60.191,31.775 62.167,36.339 62.167,42.394 L62.167,64.297 L66.454,64.297 L66.454,41.714 C66.453,33.346 63.457,28.174 53.593,28.174 Z" id="Shape"/>
                <path d="M84.683,28.174 C73.533,28.174 68.836,37.493 68.836,46.743 C68.836,56.75 73.532,65.321 84.683,65.321 C93.53,65.321 98.154,60.692 99.995,52.733 L95.703,52.733 C94.344,58.037 90.944,61.714 84.683,61.714 C76.452,61.714 73.191,54.166 73.118,47.903 L100.125,47.903 C100.466,38.042 95.973,28.174 84.683,28.174 Z M73.118,44.297 C73.798,37.903 77.676,31.775 84.683,31.775 C91.623,31.775 95.636,37.835 95.838,44.297 L73.118,44.297 Z" id="Shape"/>
                <path d="M245.635,18.634 C239.164,18.634 234.115,21.253 230.976,26.83 L230.791,26.83 L230.791,19.682 L223.809,19.682 L223.809,64.714 L231.23,64.714 L231.23,39.321 C231.23,31.208 235.592,25.179 244.582,25.179 C250.259,25.179 253.742,28.752 253.742,34.25 L253.742,64.739 L261.17,64.739 L261.17,35.126 C261.17,25.442 257.506,18.634 245.635,18.634 Z" id="Shape"/>
                <path d="M379.165,18.776 C371.45,18.118 366.198,20.748 362.612,27.986 L362.428,27.986 L362.428,19.631 L355.468,19.631 L355.468,64.714 L362.886,64.714 L362.886,43.986 C362.886,32.557 367.23,26.04 379.164,26.04 L379.164,18.776 L379.165,18.776 Z" id="Shape"/>
                <path d="M413.682,25.68 L413.512,25.68 C410.192,20.359 403.564,18.61 398.934,18.61 C385.154,18.61 378.341,29.344 378.341,42.081 C378.341,54.826 385.415,65.619 399.311,65.619 C405.504,65.619 411.075,63.639 413.512,58.655 L413.682,58.655 L413.682,64.714 L421.091,64.714 L421.091,2.472 L413.682,2.472 L413.682,25.68 L413.682,25.68 Z M400.344,59.077 C390.75,59.077 386.203,51.064 386.203,42.605 C386.203,33.794 389.603,25.151 399.725,25.151 C409.94,25.151 413.943,33.345 413.943,42.248 C413.942,50.723 410.31,59.077 400.344,59.077 Z" id="Shape"/>
                <path d="M333.017,18.634 C322.99,18.634 314.353,22.553 313.913,33.725 L321.335,33.725 C321.681,27.1 326.31,25.179 332.584,25.179 C337.299,25.179 342.623,26.228 342.623,32.68 C342.623,38.265 335.649,37.742 327.448,39.321 C319.76,40.791 312.163,42.973 312.163,53.18 C312.163,61.575 318.883,65.465 327.097,65.465 C333.793,65.465 338.134,63.725 342.554,59.308 L342.554,64.714 L349.951,64.714 L349.951,31.728 C349.951,21.153 341.135,18.634 333.017,18.634 Z M342.531,48.869 C342.531,53.262 338.525,59.239 328.744,59.239 C324.207,59.239 320.015,56.873 320.015,52.659 C320.015,47.163 324.206,45.427 329.097,44.556 C334.072,43.668 339.655,43.596 342.531,41.496 L342.531,48.869 L342.531,48.869 Z" id="Shape"/>
                <path d="M300.452,25.68 L300.271,25.68 C296.951,20.359 290.32,18.61 285.717,18.61 C271.906,18.61 265.109,29.344 265.109,42.081 C265.109,54.826 272.188,65.619 286.062,65.619 C292.265,65.619 297.841,63.639 300.271,58.655 L300.452,58.655 L300.452,64.714 L307.858,64.714 L307.858,2.472 L300.452,2.472 L300.452,25.68 Z M287.118,59.077 C277.524,59.077 272.966,51.064 272.966,42.605 C272.966,33.794 276.346,25.151 286.486,25.151 C296.701,25.151 300.708,33.345 300.708,42.248 C300.707,50.723 297.062,59.077 287.118,59.077 Z" id="Shape"/>
            </g>
            <path d="M531.956,161.54 C531.956,159.8 530.894,159.068 528.813,159.068 L525.553,159.068 L525.553,167.679 L526.973,167.679 L526.973,163.986 L528.293,163.986 L530.517,167.679 L532.122,167.679 L529.711,163.892 C530.998,163.734 531.956,163.094 531.956,161.54 Z M526.974,162.776 L526.974,160.269 L528.679,160.269 C529.524,160.269 530.538,160.399 530.538,161.436 C530.538,162.683 529.616,162.776 528.549,162.776 L526.974,162.776 L526.974,162.776 Z M528.508,155.453 C524.397,155.453 520.872,158.553 520.872,163.216 C520.872,167.643 524.042,170.991 528.508,170.991 C532.564,170.991 536.107,167.888 536.107,163.216 C536.106,158.553 532.563,155.453 528.508,155.453 Z M528.508,169.637 C524.806,169.637 522.529,166.752 522.529,163.216 C522.529,159.449 525.14,156.807 528.508,156.807 C531.824,156.807 534.438,159.45 534.438,163.216 C534.438,167.023 531.824,169.637 528.508,169.637 Z" id="Shape" fill="#005DAA"/>
        </g>
    </g>
</svg>